# xmcd CD database file
#
# Track frame offsets:
#	150
#	13510
#	28825
#	42064
#	57717
#	72107
#	84187
#	98142
#	112245
#	124747
#	137590
#	152482
#	166627
#	181757
#
# Disc length: 2597 seconds
#
# Revision: 0
# Processed by: cddbd v1.5.2PL0 Copyright (c) Steve Scherf et al.
# Submitted via: CdAid (MTCDDB.DLL V2003.12.21)
#
DISCID=ab0a230e
DTITLE=Márcia Rodrigues - Girassol de Fogo
DYEAR=1996
DGENRE=Country
TTITLE0=Queimando em Você
TTITLE1=Namorar É Bom
TTITLE2=Bota Pra Ferver
TTITLE3=Contramão
TTITLE4=Sussuarana
TTITLE5=Deitar e Rolar
TTITLE6=Gostosura
TTITLE7=Salsa Pra Que Te Quero
TTITLE8=Algo Errado
TTITLE9=Bolar Um Plano
TTITLE10=Girassol de Fogo (Forrumbia)
TTITLE11=Sangue Afro
TTITLE12=Uma Noite Não É Nada
TTITLE13=Me Pede Que Eu Faço
EXTD=ID3G:   2 YEAR: 1996
EXTT0=
EXTT1=
EXTT2=
EXTT3=
EXTT4=
EXTT5=
EXTT6=
EXTT7=
EXTT8=
EXTT9=
EXTT10=
EXTT11=
EXTT12=
EXTT13=
PLAYORDER=
